<svg xmlns="http://www.w3.org/2000/svg" xmlns:xlink="http://www.w3.org/1999/xlink" height="480" width="640"><style>.B{stroke:#000}.C{fill:none}.D{fill:#c8b100}.E{stroke-width:.374}.F{stroke-width:.25}.G{fill:#fff}.H{fill:#ad1519}.I{stroke-linejoin:round}.J{fill:#db4446}.K{stroke-width:.048}.L{fill:#058e6e}.M{fill:#005bbf}.N{fill:#ccc}.O{stroke-width:.499}.P{stroke-width:.326}.Q{stroke-width:.288}.R{stroke-width:.202}.S{stroke-width:.086}.T{stroke-width:.134}.U{stroke-width:.173}.V{stroke-linecap:round}.W{stroke-width:.442}.X{stroke-width:.586}.Y{stroke-width:.019}.Z{stroke-width:.029}.a{stroke-width:.038}.b{stroke-width:.058}.c{stroke-width:.067}.d{stroke-width:.077}.e{stroke-width:.096}.f{stroke-width:.106}.g{stroke-width:.115}.h{stroke-width:.125}.i{stroke-width:.144}</style><path fill="#c60b1e" d="M0 0h640v480H0z"/><path fill="#ffc400" d="M0 120h640v240H0z"/><path d="M127 213l-2-1-1-1v-2l1-1 2-1h1l1-1h1c1 0 0 0 0 0h8a6 6 0 011 0l2 1h2l2 1v3l-1 1-1 1h-1-15" class="H"/><path d="M127 213l-2-1-1-1v-2l1-1 2-1h1l1-1h1c1 0 0 0 0 0h8a6 6 0 011 0l2 1h2l2 1v3l-1 1-1 1h-1-15z" class="B C F I"/><path d="M133 207l2-2 1 2-1 2-2-2" class="D"/><path d="M133 207l2-2 1 2-1 2-2-2z" class="B C F"/><path d="M134 207l1-2v4l-1-2" class="D"/><path d="M134 207l1-2v4l-1-2z" class="B C F"/><g class="D"><path d="M134 205l1-1 1 1h-1-1"/><use xlink:href="#B"/></g><use xlink:href="#B" class="B C Q"/><use xlink:href="#C" class="D"/><g class="B C"><use xlink:href="#C" class="Q"/><path d="M135 204l1 1h-1-1v-1" class="F"/></g><path d="M135 213h-5v-2l-1-2-2-2v-1c1 0 4 1 5 4l1 1h4v-1c2-3 4-4 5-4l1 1-3 2v2l-1 1v1h-4" class="D"/><g class="B C F"><path d="M135 213h-5v-2l-1-2-2-2v-1c1 0 4 1 5 4l1 1h4v-1c2-3 4-4 5-4l1 1-3 2v2l-1 1v1h-4z"/><path d="M127 207c1-1 3 1 4 3m11-3l-4 3"/></g><use xlink:href="#D" class="D"/><use xlink:href="#D" class="B C F"/><path d="M135 218l5-1c1 0 2 0 1-1l-6-1-7 1 1 1 6 1" class="D"/><path d="M135 218l5-1c1 0 2 0 1-1l-6-1-7 1 1 1 6 1z" class="B C F"/><path d="M142 213h-2l-1-1-1 1-1-1h-2-2-1l-1 1-1-1-1 1h-2v1l8-1 7 1v-1" class="D"/><path d="M142 213h-2l-1-1-1 1-1-1h-2-2-1l-1 1-1-1-1 1h-2v1l8-1 7 1v-1z" class="B C F"/><path d="M135 211l1 1 1-1 1 1 1-1h1v1l1 1 1-1v1h1l1-1-1 1-1 1-1-1-2-1-1 1a2 2 0 01-1-1 2 2 0 01-1 1 2 2 0 01-1-1l-2 1a2 2 0 01-1-1 2 2 0 01-1 1 1 1 0 01-1-1l-1 1a1 1 0 01-1 0l-1 1-1-1-1-1 1 1h1l1-1 1 1 1-1a1 1 0 000-1l1 1 1-1a1 1 0 001 1l1-1h1" class="D"/><path d="M135 211l1 1 1-1 1 1 1-1h1v1l1 1 1-1v1h1l1-1-1 1-1 1-1-1-2-1-1 1a2 2 0 01-1-1 2 2 0 01-1 1 2 2 0 01-1-1l-2 1a2 2 0 01-1-1 2 2 0 01-1 1 1 1 0 01-1-1l-1 1a1 1 0 01-1 0l-1 1-1-1-1-1 1 1h1l1-1 1 1 1-1a1 1 0 000-1l1 1 1-1a1 1 0 001 1l1-1h1z" class="B C F"/><path d="M135 213l-8 1 8-1 7 1-7-1" class="D"/><path d="M135 213l-8 1 8-1 7 1-7-1z" class="B C F I"/><path d="M132 214h1l-1 1v-1" class="G"/><path d="M132 214h1l-1 1v-1z" class="B C F"/><use xlink:href="#E" class="H"/><use xlink:href="#E" class="B C F"/><use xlink:href="#F" class="L"/><use xlink:href="#F" class="B C F"/><path d="M127 215h1v1l-1-1" class="H"/><path d="M127 215h1v1l-1-1" class="B C F"/><path d="M137 214v0" class="G"/><path d="M137 214v0z" class="B C F"/><use xlink:href="#G" class="L"/><use xlink:href="#G" class="B C F"/><path d="M142 215h-1 1" class="H"/><path d="M142 215h-1 1" class="B C F"/><path d="M135 217l-6-1a25 25 0 0112 0l-6 1" class="H"/><path d="M135 217l-6-1a25 25 0 0112 0l-6 1z" class="B C F I"/><path d="M142 212c-1 0 0 0 0 0" class="D"/><path d="M142 212c-1 0 0 0 0 0z" class="B C F"/><path d="M137 211" class="D"/><path d="M137 211z" class="B C F"/><path d="M132 211" class="D"/><path d="M132 211z" class="B C F"/><path d="M127 212h1-1" class="D"/><path d="M127 212h1-1z" class="B C F"/><path d="M135 208l-1 1v1h1v-2" class="D"/><path d="M135 208l-1 1v1h1v-2" class="B C F"/><path d="M133 210v1h1l1-1h-2" class="D"/><path d="M133 210v1h1l1-1h-2" class="B C F"/><path d="M136 210v1h-1v-1h1" class="D"/><path d="M136 210v1h-1v-1h1" class="B C F"/><path d="M129 209v2h1v-2h-1" class="D"/><path d="M129 209v2h1v-2h-1" class="B C F"/><path d="M128 211v1l2-1h-2" class="D"/><path d="M128 211v1l2-1h-2" class="B C F"/><path d="M131 211h-1l1-1v1" class="D"/><path d="M131 211h-1l1-1v1" class="B C F"/><path d="M127 211v1h-2l1-1h1" class="D"/><path d="M127 211v1h-2l1-1h1" class="B C F"/><path d="M129 211l1-1v1h-1" class="D"/><path d="M129 211l1-1v1h-1z" class="B C F"/><path d="M140 209l1 1-1 1h-1v-2h1" class="D"/><path d="M140 209l1 1-1 1h-1v-2h1" class="B C F"/><path d="M141 211v1l-1-1h1" class="D"/><path d="M141 211v1l-1-1h1" class="B C F"/><path d="M138 211h2-1l-1-1v1" class="D"/><path d="M138 211h2-1l-1-1v1" class="B C F"/><path d="M142 211l1 1h1l-1-1h-1" class="D"/><path d="M142 211l1 1h1l-1-1h-1" class="B C F"/><path d="M134 210h1v1l-1-1" class="D"/><path d="M134 210h1v1l-1-1z" class="B C F"/><path d="M139 211l1-1v1h-1" class="D"/><path d="M139 211l1-1v1h-1z" class="B C F"/><path d="M125 212l-1-1a1 1 0 011 0v1" class="D"/><path d="M125 212l-1-1a1 1 0 011 0v1z" class="B C F"/><path d="M125 212c1 0 1 0 0 0 0-1 0 0 0 0" class="D"/><path d="M125 212c1 0 1 0 0 0 0-1 0 0 0 0z" class="B C F"/><path d="M144 212l1-1h0-1v1" class="D"/><path d="M144 212l1-1h0-1v1z" class="B C F"/><path d="M144 212s0 1 0 0" class="D"/><path d="M144 212s0 1 0 0z" class="B C F"/><path d="M124 223h21v-6h-21v6z" class="D"/><path d="M124 223h21v-6h-21v6z" class="B C E"/><path d="M126 227a1 1 0 011 0h16l-1-1 1-2h-16a1 1 0 01-1 0l1 2a1 1 0 01-1 1" class="D"/><path d="M126 227a1 1 0 011 0h16l-1-1 1-2h-16a1 1 0 01-1 0l1 2a1 1 0 01-1 1z" class="B C E I"/><path d="M127 227h17l-1 1h-16l-1-1h1" class="D"/><path d="M127 227h17l-1 1h-16l-1-1h1z" class="B C E"/><path d="M127 223h16l1 1h-18l1-1" class="D"/><path d="M127 223h16l1 1h-18l1-1z" class="B C E"/><path d="M150 317h-4l-4-1-4 1h-7l-4-1-3 1h-4v3l4-1 3-1 4 1 4 1 3-1 4-1 4 1 4 1v-3" class="M"/><path d="M150 317h-4l-4-1-4 1h-7l-4-1-3 1h-4v3l4-1 3-1 4 1 4 1 3-1 4-1 4 1 4 1v-3z" class="B C E"/><use xlink:href="#H" class="N"/><use xlink:href="#H" class="B C E"/><use xlink:href="#I" class="M"/><use xlink:href="#I" class="B C E"/><use xlink:href="#J" class="N"/><use xlink:href="#J" class="B C E"/><path d="M150 329l-4-1-4-1-4 1-3 1-4-1-4-1-3 1-4 1v-2l4-1 3-1 4 1 4 1 3-1 4-1 4 1 4 1v2" class="M"/><path d="M150 329l-4-1-4-1-4 1-3 1-4-1-4-1-3 1-4 1v-2l4-1 3-1 4 1 4 1 3-1 4-1 4 1 4 1v2z" class="B C E"/><path d="M126 308v1l-2 2h22c-2 0-3-1-3-2v-1h-16-1" class="D"/><path d="M126 308v1l-2 2h22c-2 0-3-1-3-2v-1h-16-1z" class="B C E I"/><path d="M127 306h16l1 1-1 1h-16l-1-1 1-1" class="D"/><path d="M127 306h16l1 1-1 1h-16l-1-1 1-1z" class="B C E"/><path d="M124 317h22v-6h-22v6z" class="D"/><path d="M124 317h22v-6h-22v6z" class="B C E"/><path d="M122 287c-2 1-4 2-3 3l1 2c2 1 3 3 2 3l2-4a6 6 0 00-2-4" class="H"/><path d="M122 287c-2 1-4 2-3 3l1 2c2 1 3 3 2 3l2-4a6 6 0 00-2-4z" class="B C E"/><path d="M127 306h15v-77h-15v77z" class="N"/><path d="M138 229v77m2-77v77m-13 0h15v-77h-15v77z" class="B C E"/><use xlink:href="#K" class="H"/><use xlink:href="#K" class="B C E I"/><use xlink:href="#L" class="H"/><use xlink:href="#L" class="B C E"/><use xlink:href="#M" class="H"/><use xlink:href="#M" class="B C E"/><path d="M117 282c0-1 4-4 10-6l8-3c8-4 14-8 13-9v-1l1 8c1 2-4 6-12 10l-10 3c-4 2-9 5-8 6l-2-8" class="H"/><path d="M117 282c0-1 4-4 10-6l8-3c8-4 14-8 13-9v-1l1 8c1 2-4 6-12 10l-10 3c-4 2-9 5-8 6l-2-8z" class="B C E I"/><path d="M126 254c2-1 3-1 2-3l-3-1-2 1 2 6h2l-1-3zm-1-3l2 1-1 1a4 4 0 010 1l-1-3m7-2h-2l2 6 4-1h-3l-1-5m8 5l3-6a5 5 0 01-1 0l-2 4-2-4h-2a131 131 0 013 6h1m9-5h1l-2-1c-2 0-3 1-3 2 0 2 3 2 3 3l-1 1-2-1a7 7 0 01-1 1h2l3-1c1-2-3-3-3-4l2-1 1 1" class="D"/><path d="M278 212h-3l-1 1c-1 1-1-1-1-1l-1 1h-1-2v-1h-1v-2l2-1h2l3-1 3 1 3-1 3 1h2l2 1v2h-1l-1 1h-2l-1-1-2 1-1-1h-2" class="H"/><path d="M278 212h-3l-1 1c-1 1-1-1-1-1l-1 1h-1-2v-1h-1v-2l2-1h2l3-1 3 1 3-1 3 1h2l2 1v2h-1l-1 1h-2l-1-1-2 1-1-1h-2z" stroke-width=".3" class="B C"/><path d="M277 208l1-2 1 2-1 1-2-1" class="D"/><path d="M277 208l1-2 1 2-1 1-2-1z" class="B C F"/><path d="M277 208l1-2v3l-1-1" class="D"/><path d="M277 208l1-2v3l-1-1z" class="B C F"/><use xlink:href="#N" class="D"/><use xlink:href="#N" class="B C F"/><path d="M278 218l6-1 1-1h-1l-6-1-7 1 1 1 6 1" class="D"/><path d="M278 218l6-1 1-1h-1l-6-1-7 1 1 1 6 1z" class="B C F"/><path d="M284 208v0" class="G"/><g class="B C"><path d="M284 208v0zm-1-1h0zm-1-1h0zm-1 0v-1l1 1h-1zm-2 0l1-1v1c0 1 0 0 0 0h-1z" class="R"/><g class="F"><path d="M288 211v-1c0-1-1-3-3-3l-1 1" class="V"/><path d="M283 209v-1l-2-2-2 1"/></g><path d="M288 210h1c1 0 0 0 0 0h-1zm0-2h1l-1 1v-1zm-1-1h1l-1 1v-1zm-1 0v-1l1 1h-1zm-2 0l1-1v1h-1z" class="R"/></g><path d="M285 213h-1l-1-1-2 1-1-1h-2-2l-2 1-1-1-1 1h-1-1l1 1 7-1 7 1v-1" class="D"/><path d="M285 213h-1l-1-1-2 1-1-1h-2-2l-2 1-1-1-1 1h-1-1l1 1 7-1 7 1v-1z" class="B C F"/><path d="M271 208h1c1 0 0 0 0 0v1l-1-1" class="G"/><g class="B C"><path d="M271 208h1c1 0 0 0 0 0v1l-1-1zm1-1zm1-1zm1 0v-1l1 1h-1c-1 0 0 0 0 0zm1 0l1-1v1c0 1 0 0 0 0h-1z" class="R"/><g class="F"><path d="M268 211a3 3 0 010-1l2-3 2 1" class="V"/><path d="M273 209l-1-1 3-2a3 3 0 012 1"/></g><path d="M267 210zm0-2h1l-1 1v-1zm1-1h1l-1 1v-1zm1 0v-1l1 1h-1zm1 0l1-1v1h-1z" class="R"/></g><path d="M278 211l1 1 1-1 1 1 1-1h1a1 1 0 000 1l1 1 1-1v1h1l1-1-1 1-1 1v-1a1 1 0 01-1 0l-1-1a2 2 0 01-2 1l-1-1a2 2 0 01-1 1l-1-1-1 1-1-1a2 2 0 01-2 1 1 1 0 01-1-1l-1 1a1 1 0 01-1 0l-1 1v-1l-1-1v1h1l1-1a1 1 0 001 1l1-1a1 1 0 000-1l1 1 1-1h1a1 1 0 001 1l1-1" class="D"/><path d="M278 211l1 1 1-1 1 1 1-1h1a1 1 0 000 1l1 1 1-1v1h1l1-1-1 1-1 1v-1a1 1 0 01-1 0l-1-1a2 2 0 01-2 1l-1-1a2 2 0 01-1 1l-1-1-1 1-1-1a2 2 0 01-2 1 1 1 0 01-1-1l-1 1a1 1 0 01-1 0l-1 1v-1l-1-1v1h1l1-1a1 1 0 001 1l1-1a1 1 0 000-1l1 1 1-1h1a1 1 0 001 1l1-1z" class="B C F"/><path d="M278 213l-8 1 8-1 7 1h0l-7-1" class="D"/><path d="M278 213l-8 1 8-1 7 1h0l-7-1z" class="B C F"/><path d="M275 214h1l-1 1v-1" class="G"/><path d="M275 214h1l-1 1v-1z" class="B C F"/><use xlink:href="#O" class="H"/><use xlink:href="#O" class="B C F"/><use xlink:href="#P" class="L"/><use xlink:href="#P" class="B C F"/><path d="M271 215v1-1" class="H"/><path d="M271 215v1-1" class="B C F"/><path d="M280 214h1l-1 1v-1" class="G"/><path d="M280 214h1l-1 1v-1z" class="B C F"/><use xlink:href="#Q" class="L"/><use xlink:href="#Q" class="B C F"/><path d="M285 215h-1 1" class="H"/><path d="M285 215h-1 1" class="B C F"/><path d="M278 217l-6-1a25 25 0 0112 0l-6 1" class="H"/><path d="M278 217l-6-1a25 25 0 0112 0l-6 1z" class="B C F I"/><path d="M285 212" class="D"/><path d="M285 212z" class="B C F"/><path d="M281 211h-1 1" class="D"/><path d="M281 211h-1 1z" class="B C F"/><path d="M275 211h0c-1 0 0 0 0 0" class="D"/><path d="M275 211h0c-1 0 0 0 0 0z" class="B C F"/><path d="M271 212c-1 0-1 0 0 0" class="D"/><path d="M271 212c-1 0-1 0 0 0z" class="B C F"/><path d="M278 208l-1 1 1 1 1-1-1-1" class="D"/><path d="M278 208l-1 1 1 1 1-1-1-1" class="B C F"/><path d="M276 210v1h2v-1h-2" class="D"/><path d="M276 210v1h2v-1h-2" class="B C F"/><path d="M280 210l-1 1h-1v-1h2" class="D"/><path d="M280 210l-1 1h-1v-1h2" class="B C F"/><path d="M272 209v1l1 1v-2h-1" class="D"/><path d="M272 209v1l1 1v-2h-1" class="B C F"/><path d="M271 211l1 1 1-1h-2" class="D"/><path d="M271 211l1 1 1-1h-2" class="B C F"/><path d="M275 211h-2l1-1 1 1" class="D"/><path d="M275 211h-2l1-1 1 1" class="B C F"/><path d="M270 211v1h-2l1-1h1" class="D"/><path d="M270 211v1h-2l1-1h1" class="B C F"/><path d="M272 211l1-1v1h-1" class="D"/><path d="M272 211l1-1v1h-1z" class="B C F"/><path d="M283 209l1 1-1 1-1-2h1" class="D"/><path d="M283 209l1 1-1 1-1-2h1" class="B C F"/><path d="M285 211l-1 1-1-1h2" class="D"/><path d="M285 211l-1 1-1-1h2" class="B C F"/><path d="M281 211h2l-1-1-1 1" class="D"/><path d="M281 211h2l-1-1-1 1" class="B C F"/><path d="M286 211v1h1l-1-1" class="D"/><path d="M286 211v1h1l-1-1" class="B C F"/><path d="M277 210h1v1l-1-1" class="D"/><path d="M277 210h1v1l-1-1z" class="B C F"/><path d="M282 211l1-1v1h-1" class="D"/><path d="M282 211l1-1v1h-1z" class="B C F"/><g class="D"><path d="M277 205h2l-1 1-1-1"/><path d="M278 205v1h-1v-1h1v-1h-1v-1h2v1h-1v1"/></g><path d="M278 205v1h-1v-1h1v-1h-1v-1h2v1h-1v1z" class="B C Q"/><use xlink:href="#R" class="D"/><path d="M278 205h1l-1 1-1-1h1" class="B C F"/><path d="M268 212l-1-1h1v1" class="D"/><path d="M268 212l-1-1h1v1z" class="B C F"/><path d="M268 212h1c1 0 0 0 0 0h-1c0-1 0 0 0 0" class="D"/><path d="M268 212h1c1 0 0 0 0 0h-1c0-1 0 0 0 0z" class="B C F"/><path d="M288 212v-1h-1v1h1" class="D"/><path d="M288 212v-1h-1v1h1z" class="B C F"/><path d="M288 212h-1 1" class="D"/><path d="M288 212h-1 1z" class="B C F"/><path d="M267 223h22v-6h-22v6z" class="D"/><path d="M267 223h22v-6h-22v6z" class="B C E"/><path d="M286 227h-16-1l1-1-1-2h17l-1 2 1 1" class="D"/><path d="M286 227h-16-1l1-1-1-2h17l-1 2 1 1z" class="B C E I"/><path d="M270 227h17l-1 1h-16l-1-1h1" class="D"/><path d="M270 227h17l-1 1h-16l-1-1h1z" class="B C E"/><path d="M270 223h16l1 1h-18l1-1" class="D"/><path d="M270 223h16l1 1h-18l1-1z" class="B C E"/><path d="M263 317h4l3-1 4 1h8l3-1 4 1h4v3l-4-1-4-1-3 1-4 1-4-1-4-1-3 1-4 1v-3" class="M"/><path d="M263 317h4l3-1 4 1h8l3-1 4 1h4v3l-4-1-4-1-3 1-4 1-4-1-4-1-3 1-4 1v-3z" class="B C E"/><use xlink:href="#S" class="N"/><use xlink:href="#S" class="B C E"/><use xlink:href="#T" class="M"/><use xlink:href="#T" class="B C E"/><use xlink:href="#U" class="N"/><use xlink:href="#U" class="B C E"/><path d="M263 329l4-1 3-1 4 1 4 1 4-1 3-1 4 1 4 1v-2l-4-1-4-1-3 1-4 1-4-1-4-1-3 1-4 1v2" class="M"/><path d="M263 329l4-1 3-1 4 1 4 1 4-1 3-1 4 1 4 1v-2l-4-1-4-1-3 1-4 1-4-1-4-1-3 1-4 1v2z" class="B C E"/><path d="M286 308v1c0 1 1 2 3 2h-22l3-2-1-1h17" class="D"/><path d="M286 308v1c0 1 1 2 3 2h-22l3-2-1-1h17z" class="B C E I"/><path d="M270 306h16l1 1-1 1h-16l-1-1 1-1" class="D"/><path d="M270 306h16l1 1-1 1h-16l-1-1 1-1z" class="B C E"/><path d="M267 317h22v-6h-22v6z" class="D"/><path d="M267 317h22v-6h-22v6z" class="B C E"/><path d="M291 287l3 3-2 2-2 3a6 6 0 011-8" class="H"/><path d="M291 287l3 3-2 2-2 3a6 6 0 011-8z" class="B C E"/><path d="M270 306h16v-77h-16v77z" class="N"/><path d="M281 229v76m2-76v76m-13 1h16v-77h-16v77z" class="B C E"/><use xlink:href="#V" class="H"/><use xlink:href="#V" class="B C E I"/><use xlink:href="#W" class="H"/><use xlink:href="#W" class="B C E"/><use xlink:href="#X" class="H"/><use xlink:href="#X" class="B C E"/><path d="M295 282c1-1-3-4-9-6l-8-3c-8-4-15-8-14-9v-1l-1 8c-1 2 5 6 13 10l10 3 8 6 1-8" class="H"/><path d="M295 282c1-1-3-4-9-6l-8-3c-8-4-15-8-14-9v-1l-1 8c-1 2 5 6 13 10l10 3 8 6 1-8z" class="B C E I"/><path d="M264 254l2-6h-1l-1 5-3-4h-2a131 131 0 014 6v-1h1m6-6h-1-1v6h4v-1h-2v-5m7 1h2v-1h-6v1a19 19 0 012 0l-1 5h2l1-5m2 6h2v-3l1 2 1 2h2-1l-1-3 2-2v-1l-2-1h-3l-1 6m3-5l2 1h-1l-2 1 1-2m8 7v2h1v1l1-7a3 3 0 01-1-1l-6 4h1v1l2-2 2 2zm-2-2l2-1v2l-2-1" class="D"/><g class="B"><path d="M182 192l2-2 2 2-2 2c-1 0-2 0-2-2z" class="C K"/><path d="M206 175c6 0 12 1 15 3l8 2h7l10 3 8 4-2 2v3l-4 5-2 2-5 4h-3l-1 2-31-4-32 4-1-2h-2l-5-4-2-2-4-5-1-3-1-2 7-4 11-3a32 32 0 0014-2c4-2 9-3 16-3z" class="F H"/><path d="M206 217c-12 0-22-1-30-4l-1-1 1-1c8-2 18-4 30-4s22 2 30 4l1 1-1 1c-8 3-18 4-30 4" class="D E"/></g><path d="M206 216c-11 0-20-2-27-4 7-1 16-3 27-3s20 2 28 3c-8 2-17 4-28 4" class="H"/><g class="B C"><path d="M207 216v-7" class="S"/><path d="M205 216v-7" class="T"/><path d="M204 216v-7" class="U"/><path d="M202 216v-7" stroke-width=".2"/><path d="M201 216v-7M198 215v-5m1 5v-6" stroke-width=".3"/><path d="M195 215v-5m2 5v-5M192 215v-5m1 5v-5m1 5v-5" stroke-width=".4"/><path d="M191 215v-5" class="W"/><path d="M190 214v-4M188 214v-4" stroke-width=".5"/><path d="M186 214v-3m1 3v-3M185 214v-3" stroke-width=".6"/><path d="M184 214v-3M182 213v-2M181 213v-1" stroke-width=".7"/><path d="M180 213v-1" stroke-width=".9"/><path d="M214 215v-5m-3 6v-7m-2 7v-7" class="K"/></g><g class="D E B"><path d="M206 207c-12 0-23 2-30 4v-3c-1-2-3-2-3-2 9-3 20-4 33-4s25 1 33 4l-2 2-1 3c-7-2-18-4-30-4"/><path d="M206 202c-13 0-24 1-33 4l-1-1 1-1c8-3 20-4 33-4s25 1 34 4v1l-1 1c-8-3-20-4-33-4"/></g><path d="M206 216c-11 0-20-2-27-4 7-1 16-3 27-3s20 2 28 3c-8 2-17 4-28 4z" class="B C E I"/><path d="M197 205l1-1 1 1-1 1-1-1" class="B E G"/><path d="M206 206h-3l-1-1 1-1h6l1 1-1 1h-3" class="B E H"/><path d="M190 206l-2 1-1-1 1-1 4-1 2 1-1 1h-3" class="B E L"/><path d="M181 207l1-1 1 1-1 1-1-1" class="B E G"/><path d="M174 208l1-1h3l-2 2-2-1" class="B E H"/><path d="M222 206l2 1 1-1v-1l-5-1-1 1 1 1h2" class="B E L"/><path d="M213 205l1-1 1 1-1 1-1-1m16 2l1-1 1 1-1 1-1-1" class="B E G"/><path d="M238 208l-1-1h-3l2 2 2-1" class="B E H"/><path d="M177 213a112 112 0 0158 0" class="B C E"/><use xlink:href="#Y" class="D"/><use xlink:href="#Y" class="B C E"/><use xlink:href="#Z" class="D"/><use xlink:href="#Z" class="B C E"/><path d="M160 187l-2-6a9 9 0 011-4c2-4 8-7 16-7l6 1-1 1a26 26 0 00-5 0c-7 0-13 2-15 6a7 7 0 000 3l2 6-2 4-2-1 2-3" class="D"/><path d="M160 187l-2-6a9 9 0 011-4c2-4 8-7 16-7l6 1-1 1a26 26 0 00-5 0c-7 0-13 2-15 6a7 7 0 000 3l2 6-2 4-2-1 2-3z" class="B C E"/><path d="M163 173l-4 4a9 9 0 00-1 4l2 6-1 3c-2-2-3-4-3-7 0-4 3-7 7-10" class="D"/><path d="M163 173l-4 4a9 9 0 00-1 4l2 6-1 3c-2-2-3-4-3-7 0-4 3-7 7-10z" class="B C E"/><path d="M206 164c2 0 3 2 4 3v6l1 8-5 5-5-5 1-8v-2a30 30 0 010-4c1-1 2-3 4-3" class="D"/><path d="M206 164c2 0 3 2 4 3v6l1 8-5 5-5-5 1-8v-2a30 30 0 010-4c1-1 2-3 4-3z" class="B C E"/><path d="M206 166l2 1v6l1 7-3 4-3-4 1-7v-1a28 28 0 010-5l2-1" class="D"/><path d="M206 166l2 1v6l1 7-3 4-3-4 1-7v-1a28 28 0 010-5l2-1z" class="B C E"/><use xlink:href="#a" class="D"/><use xlink:href="#a" class="B C E"/><use xlink:href="#b" class="D"/><use xlink:href="#b" class="B C E"/><path d="M252 187l2-6a9 9 0 00-1-4c-2-4-8-7-16-7l-6 1 1 1a25 25 0 015 0c7 0 13 2 15 6a7 7 0 010 3l-2 6 2 4 2-1-2-3" class="D"/><path d="M252 187l2-6a9 9 0 00-1-4c-2-4-8-7-16-7l-6 1 1 1a25 25 0 015 0c7 0 13 2 15 6a7 7 0 010 3l-2 6 2 4 2-1-2-3z" class="B C E"/><path d="M249 173l4 4a9 9 0 011 4l-2 6 1 3c2-2 3-4 3-7 0-4-3-7-7-10" class="D"/><path d="M249 173l4 4a9 9 0 011 4l-2 6 1 3c2-2 3-4 3-7 0-4-3-7-7-10z" class="B C E"/><path d="M204 181l2-1 2 1-2 2-2-2" class="G"/><g class="B"><g class="E"><path d="M204 181l2-1 2 1-2 2-2-2z" class="C"/><path d="M204 178l2-2 2 2-2 2-2-2m1-4l1-1 1 1-1 2-1-2m0-3l1-1 1 1-1 1-1-1m0-3l1-1 1 1-1 1-1-1" class="G"/><path d="M206 192h1v2c0 2 2 4 5 4 2 0 4-1 4-3l1-2v2c1 2 3 4 5 4a5 5 0 005-5l1-2 1 2-1 2c0 3 2 4 5 4l4-1 1-2v2c0 1 0 3 2 3l4-2 3-3v2l-4 4-4 1-3-3a7 7 0 01-3 1c-3 0-5-1-6-4-1 2-3 3-5 3s-4-1-5-3a7 7 0 01-5 2c-3 0-5-1-6-3-1 2-3 3-6 3a7 7 0 01-4-2 7 7 0 01-11 0c-1 3-3 4-6 4a7 7 0 01-3-1l-3 3-4-1-4-4v-2l4 3 4 2 2-3v-2l1 2 3 1c3 0 5-1 5-4l-1-2 1-2 2 2c0 3 2 5 4 5 3 0 5-2 5-4v-2l1 2c1 2 2 3 4 3a5 5 0 005-6h1" class="D"/><path d="M239 198l-1-2-1 1v2l2-1m-21-4l-1-2-1 1 1 2 1-1m-24 0l1-2 1 1v2l-2-1m-20 4v-2l2 1-1 2-1-1" class="G"/><g class="D"><path d="M183 184l2 3 1-1h1l-1 1v3l-1 1a2 2 0 00-1 0 2 2 0 00-1 1l-1-2-2-2v-1h2l1-3M183 194a2 2 0 01-1-1 2 2 0 011-1l-2-1h-3a6 6 0 000 1l-3 2 4 1v1h1l2-1 1-1m3-1a2 2 0 000-1 2 2 0 00-1-1l2-1 2-1h1a6 6 0 010 1l3 1-3 2a6 6 0 001 1h-3l-2-1"/></g><path d="M182 192l2-2 2 2-2 2c-1 0-2 0-2-2" class="H"/><g class="D"><path d="M206 181l2 3h2v1l-1 3a8 8 0 01-1 1 2 2 0 00-2 0 2 2 0 00-1 0l-1-1-1-3-1-1h2l2-3M205 192a2 2 0 01-1-1 2 2 0 011-2l-2-1h-3l-1-1v1a7 7 0 001 1l-4 2 4 1-1 1v1h1l3-1 2-1m3 0a2 2 0 000-1v-2l2-1h2l1-1v2l3 2-3 1a7 7 0 000 2h-1l-2-1-2-1m22-8l-3 3v-1h-1v4l1 1a2 2 0 011 0 2 2 0 012 1l1-2 1-2 1-1h-1-1l-1-3"/><path d="M229 194l1-1a2 2 0 000-1l1-1h4a6 6 0 01-1 1l3 2-3 1a5 5 0 000 1h-1l-2-1-2-1m-2-1a2 2 0 01-1-1l1-1-1-1-3-1a171 171 0 01-1 0l1 1-4 1 3 2v1h-1 4a11 11 0 002-1"/></g><path d="M226 192l2-2 2 2-2 2c-1 0-2 0-2-2m23 5h-2l-1 2h3v-2" class="H"/><path d="M246 198l1-1h2l3-3h3c0-2-1-3-3-3l-2 1v-1l-2 2v4l-1-2-2-2h-2a5 5 0 000 1h-3l2 3h-1a4 4 0 000 1h4a15 15 0 001 0m-80 0l-1-1h-2l-2-3h-4c0-2 2-3 3-3l3 1v-1l2 2v2l3-2h1v1h4l-3 3h1a4 4 0 011 1h-2-2a15 15 0 01-2 0" class="D"/><path d="M163 197h2l1 2h-2l-1-2m41-6c0-2 1-2 2-2l2 2c0 2-1 2-2 2l-2-2" class="H"/></g><g class="F"><path d="M202 161c0-3 2-4 4-4s4 1 4 4c0 2-2 4-4 4s-4-2-4-4" class="M"/><path d="M205 149v2h-2v3h2v6h-3v2h8v-1-1h-3v-6h3v-3h-3v-2h-2z" class="D"/></g></g><path d="M206 331c-12 0-25-4-35-9-8-3-13-11-13-20v-32h97v32c0 9-6 17-13 20-11 5-23 9-36 9" class="N"/><path d="M206 331c-12 0-25-4-35-9-8-3-13-11-13-20v-32h97v32c0 9-6 17-13 20-11 5-23 9-36 9z" class="B C O"/><path d="M206 270h49v-53h-49v53z" class="N"/><path d="M206 270h49v-53h-49v53z" class="B C O"/><use xlink:href="#c" class="H"/><g class="B"><g class="D"><path d="M169 321l5 3v-55h-5v52z" class="O"/><path d="M158 302c0 6 3 11 6 15v-48h-6v33z" stroke-width=".5" class="I"/></g><g class="O"><path d="M179 325a27 27 0 006 0v-56h-6v56z" fill="#c7b500"/><path d="M190 324l6-3v-52h-6v55z" class="D"/></g></g><path d="M158 270h48v-53h-48v53z" class="H"/><g class="B O"><path d="M158 270h48v-53h-48v53z" class="C"/><path d="M201 316c2-2 5-7 5-12l1-35h-6v47z" class="D"/><use xlink:href="#c" class="C"/></g><use xlink:href="#d" class="H"/><use xlink:href="#d" class="B C O"/><g class="D"><path d="M215 294v1l-1 1-1-1v-1h-1l-1 1 2 2v4h2v-4a3 3 0 002-2h4v-1h-6m22 0v1h-4a3 3 0 010 1l4 5-1 1-5-5v9h-2v-9l-5 5-1-1 5-5a2 2 0 010-1h-4v-1h13zm2 0v1h5l1 2v4h2v-4l2-2v-1h-2v1l-1 1-1-1a1 1 0 010-1h-6m-6 22l3-1 1 2a18 18 0 01-4 1c0 1-1 2-3 2s-2-1-2-2a18 18 0 01-5-1l1-2 4 1 1-1v-7h2v7l2 1zm-11-2l-1 1a17 17 0 01-4-3h-2l-1-4h1a15 15 0 01-2-5h2a13 13 0 001 4l1 1 5-5 1 1-4 5a2 2 0 010 2 15 15 0 003 3zm-6-5h1v2a1 1 0 01-1 0 1 1 0 010-2zm-2-4l-2-1v-4h1v2a15 15 0 001 3zm1-6l2 1v4l-2 1v-6zm5 14a16 16 0 005 3l1-2a14 14 0 01-4-2l-2 1m0 2a17 17 0 005 2l-2 1a19 19 0 01-4-2l1-1m2-10l1 1 3-3-1-2-3 4m-1-1l-1-1 3-4 1 1-3 4m18 10l1 1a17 17 0 003-3h3v-4a15 15 0 001-5h-2a13 13 0 01-1 4 3 3 0 00-1 1l-4-5-1 1 4 5a2 2 0 000 2 15 15 0 01-3 3zm6-5a1 1 0 00-2 0 1 1 0 000 2 1 1 0 002 0 1 1 0 000-2zm2-4l2-1v-4h-2v5zm-2-6l-1 1v4l1 1v-6m-5 14a16 16 0 01-5 3v-2a14 14 0 004-2l1 1m1 2a17 17 0 01-5 2l1 1 4-2v-1m-2-10l-2 1-3-3 1-2 4 4m1-1l1-1-3-4-2 1 4 4m-20-9v2h5v-2h-5m21 0l-1 2h-4l-1-2h6m-12 22l1-1 1 1-1 1-1-1zm2-7l2-1v-4l-2-1v6m-2 0l-1-1v-4l1-1v6M212 294l1-2v-5h2v5l2 2h4-6a1 1 0 00-1 0h-2m12 0h4l-5-6 1-1 5 5v-7h2v7l5-5 1 1-4 5v1h4-13zm21 0a1 1 0 011 0 1 1 0 011 0h2l-2-2v-5h-1l-1 5-1 2h-5 6m-30-15l6 7 2-1-7-7a3 3 0 001 0h4v-2h-4l-3-2-2 3 1 2v5h2v-5zm32 0v5h-1v-5a2 2 0 01-1 0l-6 7-1-1 6-7h-5v-2h5l2-2c2 0 3 1 3 3l-2 2zm-16 0v3h-2v-3a3 3 0 01-1-1h-4v-2h4l2-2 3 2h4v2h-4a3 3 0 01-2 1zm-18 4l-1 1v4h1v-5m2 0l2 1v4h-2v-5m30 0l-1 1v4h1v-5m2 0l2 1v4h-2v-5m-25 1l1-1 3 4-1 1-3-4m-2 1l-1 1 3 4 2-1-4-4m19-1l-2-1-3 4 1 1 4-4m1 1l1 1-3 4-1-1 3-4m-20 9v-2h5v2h-5m-7-17l1-1 1 1-1 1-1-1zm12 1v1h-5v-1h5m0-2v-1h-5v1h5m16 18l-1-2h-4l-1 2h6m4-17l1-1 1 1-1 1-1-1zm-16 0l1-1 1 1-1 1-1-1zm6 1l1 1h4l1-1h-6m0-2l1-1h4l1 1h-6m-6 5l-1 1v4h1v-5m2 0l2 1v4h-2v-5"/></g><g stroke="#c8b100" class="C F"><path d="M233 316l3-1 1 2a18 18 0 01-4 1c0 1-1 2-3 2s-2-1-2-2a18 18 0 01-5-1l1-2 4 1a3 3 0 011-1v-7h2v7l2 1h0zm-5-20a2 2 0 010-1h-4v-1h4a3 3 0 010 0l-5-6 1-1 5 5a2 2 0 010 0v-7h2v7h0l5-5 1 1-4 5a2 2 0 010 1h4v1h-4v1l4 5-1 1-5-5s0 0 0 0v9h-2v-9s0 0 0 0l-5 5-1-1 5-5m-13-17l6 7 1-1-6-7a3 3 0 001 0h4v-2h-4l-3-2-2 3 1 2v5h2v-5s0 0 0 0zm7 35l-1 1a17 17 0 01-4-3h-2l-1-4h1a15 15 0 01-2-5h2a13 13 0 001 4l1 1 5-5 1 1-4 5a2 2 0 010 2 15 15 0 003 3zm-9-13v-4l-2-2 2-3v-5h2v5l2 2h4v1h-4a3 3 0 01-2 2v4h-2m3 8a1 1 0 011 0v2a1 1 0 01-1 0 1 1 0 010-2zm-2-4l-2-1v-4h1v2a15 15 0 001 3zm1-6l2 1v4l-2 1v-6h0zm5 14a16 16 0 005 3l1-2a14 14 0 01-4-2l-2 1m0 2a17 17 0 005 2l-2 1a19 19 0 01-4-2l1-1"/><path d="M222 305l1 1 3-3-1-2-3 4m-1-1l-1-1 3-4 1 1-3 4m-8-9l1-1 1 1-1 1-1-1zm26 19l1 1a17 17 0 003-3h3v-4h0a15 15 0 001-5h-2a13 13 0 01-1 4 3 3 0 00-1 1l-4-5-1 1 4 5a2 2 0 000 2 15 15 0 01-3 3zm8-13v-4l2-2-2-3v-5h-2v5l-1 2h-5v1h5l1 2v4h2zm-2 8a1 1 0 00-2 0 1 1 0 000 2 1 1 0 002 0 1 1 0 000-2zm2-4l2-1v-4h-2v5zm-2-6l-1 1v4l1 1v-6m2-20v5h-2v-5a2 2 0 010 0l-6 7-1-1 6-7s0 0 0 0h-5v-2h5l2-2c2 0 3 2 3 3l-2 2zm-16 0v3h-2v-3a3 3 0 01-1-1h-4v-2h4l2-2 3 2h4v2h-4a3 3 0 01-2 1zm9 34a16 16 0 01-5 3v-2a14 14 0 004-2l1 1m1 2a17 17 0 01-5 2l1 1a19 19 0 004-2v-1m-28-32l-1 1v4h1v-5m2 0l2 1v4h-2v-5m30 0l-1 1v4h1v-5"/><path d="M247 283l2 1v4h-2v-5m-8 22l-2 1-3-3 1-2 4 4m1-1l1-1-3-4-2 1 4 4m-18-20l1-1 3 4-1 1-3-4m-2 1l-1 1 3 4 2-1-4-4m19-1l-2-1-3 3 1 2 4-4m1 1l1 1-3 4-2-1 4-4m-20 9v-2h5v2h-5m0 1v2h5v-2h-5m-7-18l1-1 1 1-1 1-1-1zm12 1v1h-5v-1h5m0-2v-1h-5v1h5m20 19l1-1 1 1-1 1-1-1zm-4-1l-1-2h-4l-1 2h6m0 1l-1 2h-4l-1-2h6m-12 22l1-1 1 1-1 1-1-1zm2-7l2-1v-4l-2-1v6m-2 0l-1-1v-4l1-1v6m16-33l1-1 1 1-1 1-1-1zm-16 0l1-1 1 1-1 1-1-1zm6 1l1 1h4l1-1h-6m0-2l1-1h4l1 1h-6m-6 5l-1 1v4h1v-5m2 0l2 1v4h-2v-5"/></g><path d="M228 295c0-2 1-3 2-3 2 0 3 1 3 3 0 1-1 2-3 2s-2-1-2-2" class="L"/><path d="M231 230v-1h-2l-3-2-1-1-3 1a4 4 0 002 1l2 1 3 1h2" class="J"/><g class="B E"><path d="M231 230v-1h-2l-3-2-1-1-3 1a4 4 0 002 1l2 1 3 1h2z" class="C"/><path d="M238 228v3l1 1h-1l-1-1v1l1 1 1 2v1l-1-1h-1l1 1-1 2v-1l-1-1v4l-1-1-1-1 1 1s0 3 2 5c0 1 2 4 5 3s2-5 1-7l-1-5 1-3v-3l1-2v-2-1l1 2v1l1-2 2-1v2l-2 2h1a5 5 0 011 0l-1 1-1 3-2 1v5l2 5c0 1 0 3-2 5l-3 1-1 3 1 2 1 1v1h1l-2 2v5h-1-1v-1c0-1 0 0 0 0h-1v1h-1l-1-1 1-1h0l-1-1c0-1 0 0 0 0v-1h2l1-1c1-1 0-1-1-1v-1l-1-1v2c0 1 0 0 0 0l-1-2v2h-1l-1-1v-2-2h-3v3l1 2-1 1h-1l-1-1h-2l-1 1h-2v-1h-1l-1-1v-1h2v-1h-1l1-1 1-1v2l2 1 2-1-1-1 1-1-1 1v-1l-1-1v-2l2-2h4l-3-2-2-2-1-1h-1a5 5 0 00-1 1l-1 1v-1-1l-1 2-1 1v-1-1l-1 1h-2v2c0 1 0 0 0 0h-1-1v-1l1-1-1 1-1-1v-1h1v-1l-1-1h1v-1l1 1h2l2-1 1-1-1-1-1-1h-2l-1-1h1v-1h1-2-1-1l1-1h0v-1l-1-1h-1l-1-1v-1h2l-1-1h-1l1-1 1-1 1 2v-2c0-1 0 0 0 0h2v1l-1 2 2 1 1 1 2 1 1 1 1-1h3l1-1-1-1 1-1h2l-1-2-2-1v-1l1-1h2l1-1h1a20 20 0 003 1l2 3" fill="#ed72aa"/></g><path d="M228 227v-1h1l-1 1"/><path d="M228 227v-1h1l-1 1z" class="B C F"/><path d="M232 225h1l1 1h-2v-1"/><g class="B C"><path d="M232 225h1l1 1h-2v-1z" class="K"/><path d="M237 231v-1" class="F"/></g><path d="M217 227h2v-1l-1-1v1l-1 1" class="J"/><path d="M217 227h2v-1l-1-1v1l-1 1z" class="B C E"/><path d="M215 228l-1-1-2 1h2v1l1-1" class="J"/><path d="M215 228l-1-1-2 1h2v1l1-1z" class="B C E"/><path d="M214 231h-1v2l1-1h1l-1-1c0-1 0 0 0 0" class="J"/><path d="M214 231h-1v2l1-1h1l-1-1c0-1 0 0 0 0z" class="B C E"/><path d="M228 231v-1h1l-1 1"/><path d="M228 231v-1h1l-1 1" class="B C F"/><path d="M229 231v-1h1l-1 1"/><path d="M229 231v-1h1l-1 1" class="B C F"/><path d="M229 227v1-1"/><path d="M229 227v1-1" class="B C F"/><path d="M230 228"/><g class="B C"><path d="M230 228" class="F"/><path d="M224 234h-1v1h4l-1 1v3h1a5 5 0 002-1v-1 1l1 2v-1h1l1-1v1l1 2v-2l1-1c0-1 0 0 0 0m-11 1l1-1 1-1h1m1 5l1-1 2-1" class="E"/></g><path d="M217 240h-1l-2 1h2l1-1" class="J"/><path d="M217 240h-1l-2 1h2l1-1z" class="B C E"/><path d="M216 243h-1l-1 2 1-1 1 1v-1-1" class="J"/><path d="M216 243h-1l-1 2 1-1 1 1v-1-1z" class="B C E"/><path d="M217 246l1 1 1 1-1-1 1-1h-1-1" class="J"/><path d="M217 246l1 1 1 1-1-1 1-1h-1-1zm16 1l2 2-1 3" class="B C E"/><path d="M224 253l-1-1-1 1h1a9 9 0 010 1l1-1" class="J"/><path d="M224 253l-1-1-1 1h1a9 9 0 010 1l1-1z" class="B C E"/><path d="M222 255l-1 1-1 1 1-1 1 1v-2" class="J"/><path d="M222 255l-1 1-1 1 1-1 1 1v-2z" class="B C E"/><path d="M224 258v1l1 1v-1-1h-1" class="J"/><path d="M224 258v1l1 1v-1-1h-1z" class="B C E"/><path d="M236 259h-1l-1 2 1-1h1v-1" class="J"/><path d="M236 259h-1l-1 2 1-1h1v-1z" class="B C E"/><path d="M236 262v1l1 1v-1h0a16 16 0 01-1-1" class="J"/><path d="M236 262v1l1 1v-1h0a16 16 0 01-1-1z" class="B C E"/><path d="M239 263l1 1 1 1-1-1 1-1h-1-1" class="J"/><g class="B"><path d="M239 263l1 1 1 1-1-1 1-1h-1-1z" class="C E"/><g class="O"><path d="M209 316c2 1 3 2 3 4s-2 4-5 4-5-1-5-4c0-2 0-3 2-4v-1h1l1 1v-1h1a3 3 0 011 1v-1h1v1" fill="#ffd691"/><path d="M206 327l-5-3h-6l2 1 3 2h6m1 0l5-3 7 1h-2l-4 2h-6" class="L"/><path d="M207 324a5 5 0 010-7 5 5 0 011 3 5 5 0 01-1 4" class="H"/><path d="M206 329v-3-2h1v5h-1c-1 0 0 0 0 0" class="L"/></g></g><path d="M254 191l1-1 1 1-1 1-1-1" class="G"/><path d="M254 191l1-1 1 1-1 1-1-1z" class="B C E"/><path d="M255 188l1-1 2 1-2 1-1-1" class="G"/><path d="M255 188l1-1 2 1-2 1-1-1z" class="B C E"/><path d="M256 185l1-1 2 1-2 1-1-1" class="G"/><path d="M256 185l1-1 2 1-2 1-1-1z" class="B C E"/><path d="M257 182l1-1 1 1-1 1-1-1" class="G"/><path d="M257 182l1-1 1 1-1 1-1-1z" class="B C E"/><path d="M256 179l1-1 1 1-1 1-1-1" class="G"/><path d="M256 179l1-1 1 1-1 1-1-1z" class="B C E"/><path d="M254 176l1-1 1 1-1 1-1-1" class="G"/><path d="M254 176l1-1 1 1-1 1-1-1z" class="B C E"/><path d="M252 174l1-1 1 1-1 1-1-1" class="G"/><path d="M252 174l1-1 1 1-1 1-1-1z" class="B C E"/><path d="M249 172l2-1 1 1-1 1-2-1" class="G"/><path d="M249 172l2-1 1 1-1 1-2-1z" class="B C E"/><path d="M246 170l2-1 1 1-1 1-2-1" class="G"/><path d="M246 170l2-1 1 1-1 1-2-1z" class="B C E"/><path d="M243 169l1-1 1 1-1 1-1-1" class="G"/><path d="M243 169l1-1 1 1-1 1-1-1z" class="B C E"/><path d="M240 169l1-1 1 1-1 1-1-1" class="G"/><path d="M240 169l1-1 1 1-1 1-1-1z" class="B C E"/><path d="M237 168l1-1 1 1-1 1-1-1" class="G"/><path d="M237 168l1-1 1 1-1 1-1-1z" class="B C E"/><path d="M233 168l1-1 1 1-1 1-1-1" class="G"/><path d="M233 168l1-1 1 1-1 1-1-1z" class="B C E"/><path d="M230 168l1-1 1 1-1 1-1-1" class="G"/><g class="B E"><path d="M230 168l1-1 1 1-1 1-1-1z" class="C"/><path d="M232 171l1-1 1 1-1 1-1-1m0 3l1-1 1 1-1 1-1-1m0 3l2-1 1 1-1 1-2-1m0 3l1-1 1 1-1 1-1-1m-2 3l1-1 1 1-1 1-1-1" class="G"/></g><path d="M228 167l1-1 1 1-1 1-1-1" class="G"/><path d="M228 167l1-1 1 1-1 1-1-1z" class="B C E"/><path d="M225 165l1-1 1 1-1 1-1-1" class="G"/><path d="M225 165l1-1 1 1-1 1-1-1z" class="B C E"/><path d="M222 164l1-1 1 1-1 1-1-1" class="G"/><path d="M222 164l1-1 1 1-1 1-1-1z" class="B C E"/><path d="M218 163l1-1 1 1-1 1-1-1" class="G"/><path d="M218 163l1-1 1 1-1 1-1-1z" class="B C E"/><path d="M215 163l1-1 1 1-1 1-1-1" class="G"/><path d="M215 163l1-1 1 1-1 1-1-1z" class="B C E"/><path d="M212 164l1-1 1 1-1 1-1-1" class="G"/><path d="M212 164l1-1 1 1-1 1-1-1z" class="B C E"/><path d="M209 165l1-1 1 1-1 1-1-1" class="G"/><path d="M209 165l1-1 1 1-1 1-1-1z" class="B C E"/><path d="M156 191l1-1 1 1-1 1-1-1" class="G"/><path d="M156 191l1-1 1 1-1 1-1-1z" class="B C E"/><path d="M154 188l2-1 1 1-1 1-2-1" class="G"/><path d="M154 188l2-1 1 1-1 1-2-1z" class="B C E"/><path d="M154 185l1-1 1 1-1 1-1-1" class="G"/><path d="M154 185l1-1 1 1-1 1-1-1z" class="B C E"/><path d="M153 182l1-1 2 1-2 1-1-1" class="G"/><path d="M153 182l1-1 2 1-2 1-1-1z" class="B C E"/><path d="M154 179l1-1 1 1-1 1-1-1" class="G"/><path d="M154 179l1-1 1 1-1 1-1-1z" class="B C E"/><path d="M156 176l1-1 1 1-1 1-1-1" class="G"/><path d="M156 176l1-1 1 1-1 1-1-1z" class="B C E"/><path d="M158 174l1-1 1 1-1 1-1-1" class="G"/><path d="M158 174l1-1 1 1-1 1-1-1z" class="B C E"/><path d="M160 172l2-1 1 1-1 1-2-1" class="G"/><path d="M160 172l2-1 1 1-1 1-2-1z" class="B C E"/><path d="M163 170l2-1 1 1-1 1-2-1" class="G"/><path d="M163 170l2-1 1 1-1 1-2-1z" class="B C E"/><path d="M167 169l1-1 1 1-1 1-1-1" class="G"/><path d="M167 169l1-1 1 1-1 1-1-1z" class="B C E"/><path d="M170 169l1-1 1 1-1 1-1-1" class="G"/><path d="M170 169l1-1 1 1-1 1-1-1z" class="B C E"/><path d="M173 168l1-1 1 1-1 1-1-1" class="G"/><path d="M173 168l1-1 1 1-1 1-1-1z" class="B C E"/><path d="M177 168l1-1 1 1-1 1-1-1" class="G"/><path d="M177 168l1-1 1 1-1 1-1-1z" class="B C E"/><path d="M180 168l1-1 1 1-1 1-1-1" class="G"/><g class="B E"><path d="M180 168l1-1 1 1-1 1-1-1z" class="C"/><path d="M178 171l1-1 1 1-1 1-1-1m0 3l1-1 1 1-1 1-1-1m-1 3l1-1 2 1-2 1-1-1m1 3l1-1 2 1-2 1-1-1m2 3l1-1 1 1-1 1-1-1" class="G"/></g><path d="M182 167l1-1 1 1-1 1-1-1" class="G"/><path d="M182 167l1-1 1 1-1 1-1-1z" class="B C E"/><path d="M185 165l1-1 1 1-1 1-1-1" class="G"/><path d="M185 165l1-1 1 1-1 1-1-1z" class="B C E"/><path d="M188 164l1-1 1 1-1 1-1-1" class="G"/><path d="M188 164l1-1 1 1-1 1-1-1z" class="B C E"/><path d="M192 163l1-1 1 1-1 1-1-1" class="G"/><path d="M192 163l1-1 1 1-1 1-1-1z" class="B C E"/><path d="M195 163l1-1 1 1-1 1-1-1" class="G"/><path d="M195 163l1-1 1 1-1 1-1-1z" class="B C E"/><path d="M198 164l1-1 1 1-1 1-1-1" class="G"/><path d="M198 164l1-1 1 1-1 1-1-1z" class="B C E"/><path d="M201 165l1-1 1 1-1 1-1-1" class="G"/><g class="B"><path d="M201 165l1-1 1 1-1 1-1-1z" class="C E"/><g class="D W"><path d="M175 229h-1v-1h-2v4h2v2h-4v7h2v14h-3v8h27v-8h-4v-14h2v-7h-3v-2h1v-4h-1v1h-1v-1h-2v1h-1v-1h-1v4h1v2h-3v-8h2v-3h-2v1h-1v-1h-1v1h-1v-1h-2v3h2v8h-4v-2h2v-4h-2v1h-1v-1h-1v1zm-6 34h27m-27-2h27m-27-2h27m-27-2h27m-27-2h27m-24-1h20m-20-2h20m-20-2h20m-20-2h20m-20-2h20m-20-1h20m-20-2h20m-22-2h24m-24-2h24m-24-1h24m-24-2h24m-20-2h17m-10-2h3m-3-2h3m-3-1h3m-3-2h3m-5-2h7m-12 7h3m-5-2h7m-7 33v-2m0-2v-2m-2 2v2m4 0v-2m2 4v-2m0-2v-2m0-2v-1m0-2v-2m-2 7v-2m-4 2v-2m7 0v2m2-2v-1m-5-2v2m3-2v2m4-2v2m-2-2v-2m2-2v2m0-5v1m-2-3v2m2-4v2m-4-2v2m-3-2v2m-2-4v2m4-2v2m3-2v2m2-3v1m-4-1v1m-3-1v1m-2-3v2m7-2v2m-3-6v2m15-2h-4m5-2h-6m6 33v-2m0-2v-2m2 2v2m-3 0v-2m-2 4v-2m0-2v-2m0-2v-1m0-2v-2m2 7v-2m3 2v-2m-7 0v2m-1-2v-1m5-2v2m-4-2v2m-3-2v2m2-2v-2m-2-2v2m0-5v1m2-3v2m-2-4v2m3-2v2m4-2v2m1-4v2m-3-2v2m-3-2v2m-2-4v2m3-2v2m4-2v2m1-3v1m-6-1v1m3-5v2m-7 18v-2m0-5v-2m0 5v-2m0-5v-2m0-1v-2m0-4v-2m0-1v-2m-8 5h3m4-6h3m3 6h4"/><path d="M187 263v-5c0-1-1-4-5-4s-4 3-4 4v5h9z"/><path d="M179 258h-2l1-3 2 2-1 1zm6 0h3l-1-3-2 2v1zm-2-2l1-2-2-1-2 1 2 2h1zm-4-6v-4c0-2-1-3-3-3s-2 1-2 3v4h5zm7 0v-4c0-2 1-3 2-3l3 3v4h-5zm-2-12v-4h-4v4h4zm3 0v-4h4v4h-4zm-10 0l1-4h-5l1 4h3z"/></g></g><path d="M185 263v-4c0-1 0-3-3-3-2 0-3 2-3 3v4h6zm-7-13v-4c0-1 0-2-2-2s-2 1-2 2v4h4zm8 0v-4l2-2 2 2v4h-4z" fill="#0039f0"/><path d="M191 270c0-10 7-18 15-18s16 8 16 18-7 17-16 17-15-8-15-17" class="H"/><path d="M191 270c0-10 7-18 15-18s16 8 16 18-7 17-16 17-15-8-15-17z" class="B C X"/><path d="M195 270c0-7 5-13 11-13s11 6 11 13-5 13-11 13-11-6-11-13" class="M"/><path d="M195 270c0-7 5-13 11-13s11 6 11 13-5 13-11 13-11-6-11-13z" class="B C X"/><path d="M201 261l-1 3a6 6 0 000 2l-1-1-1 2v1h1l1 1h-1v1h1l-1 1h1l1 1 1-1h1l-1-1h1v-1h-1l1-1h1l1-1-2-2-1 1 1-2-2-3" class="D"/><path d="M201 261l-1 3a6 6 0 000 2l-1-1-1 2v1h1l1 1h-1v1h1l-1 1h1l1 1 1-1h1l-1-1h1v-1h-1l1-1h1l1-1-2-2-1 1 1-2-2-3z" class="B C I P"/><path d="M199 270h4v-1h-4v1z" class="D"/><path d="M199 270h4v-1h-4v1z" class="B C P"/><path d="M211 261l-1 3 1 2-2-1-1 2 1 1h1l1 1h-2v1h1v1h1v1l1-1h1l-1-1h2v-1h-2l1-1h1l1-1-1-2-2 1 1-2-2-3" class="D"/><path d="M211 261l-1 3 1 2-2-1-1 2 1 1h1l1 1h-2v1h1v1h1v1l1-1h1l-1-1h2v-1h-2l1-1h1l1-1-1-2-2 1 1-2-2-3z" class="B C I P"/><path d="M209 270h5v-1h-5v1z" class="D"/><path d="M209 270h5v-1h-5v1z" class="B C P"/><path d="M206 270l-1 2 1 3-2-1-1 1v2l1-1 1 1a1 1 0 010 1h-1v1h1v1h1v1l1-1h1l-1-1h1v-1h-1a1 1 0 010-1l1-1 1 1 1-1v-1l-2-1-1 1 1-3c0-2-2-2-2-2" class="D"/><path d="M206 270l-1 2 1 3-2-1-1 1v2l1-1 1 1a1 1 0 010 1h-1v1h1v1h1v1l1-1h1l-1-1h1v-1h-1a1 1 0 010-1l1-1 1 1 1-1v-1l-2-1-1 1 1-3c0-2-2-2-2-2z" class="B C I P"/><path d="M204 279h4v-1h-4v1z" class="D"/><path d="M204 279h4v-1h-4v1z" class="B C P"/><path d="M238 223h-1a1 1 0 010 1h-1v-1h-1l1-1h-1l-1 1a1 1 0 010-1l-1-1v3l3 1 2 3 1-1h2l-2-1v-1h-1a1 1 0 01-1 0v-1h1v-1" class="D"/><path d="M238 223h-1a1 1 0 010 1h-1v-1h-1l1-1h-1l-1 1a1 1 0 010-1l-1-1v3l3 1 2 3 1-1h2l-2-1v-1h-1a1 1 0 01-1 0v-1h1v-1z" class="B C F"/><path d="M235 224h0"/><path d="M235 224h0z" class="B C K"/><use xlink:href="#e"/><use xlink:href="#e" class="B C K"/><use xlink:href="#f"/><use xlink:href="#f" class="B C K"/><path d="M234 223"/><path d="M234 223z" class="B C K"/><path d="M237 226v-1 1c0 1 0 0 0 0"/><path d="M237 226v-1 1c0 1 0 0 0 0z" class="B C K"/><use xlink:href="#g"/><use xlink:href="#g" class="B C K"/><path d="M239 227s-1 0 0 0"/><path d="M239 227s-1 0 0 0z" class="B C K"/><path d="M236 221l-1 1h1v-1" class="D"/><path d="M236 221l-1 1h1v-1" class="B C F"/><path d="M235 222h1l-1-1v1" class="D"/><path d="M235 222h1l-1-1v1" class="B C F"/><path d="M236 223l-1-1h1v1" class="D"/><path d="M236 223l-1-1h1v1" class="B C F"/><path d="M235 222h0" class="D"/><path d="M235 222h0z" class="B C F"/><path d="M233 221v-1 1" class="D"/><path d="M233 221v-1 1z" class="B C F"/><path d="M234 221v1l-1-1h1" class="D"/><path d="M234 221v1l-1-1h1" class="B C F"/><path d="M233 221s1 0 0 0" class="D"/><path d="M233 221s1 0 0 0z" class="B C F"/><path d="M238 223v-1 1h1-1" class="D"/><path d="M238 223v-1 1h1-1" class="B C F"/><path d="M237 223h1-1" class="D"/><path d="M237 223h1-1" class="B C F"/><path d="M238 224l-1-1h1v1" class="D"/><path d="M238 224l-1-1h1v1" class="B C F"/><path d="M237 223h1v1h-1v-1" class="D"/><path d="M237 223h1v1h-1v-1z" class="B C F"/><path d="M240 224v1h-1l1-1" class="D"/><path d="M240 224v1h-1l1-1" class="B C F"/><path d="M240 226l-1-1h1v1" class="D"/><path d="M240 226l-1-1h1v1" class="B C F"/><path d="M239 224l-1 1h1v-1" class="D"/><path d="M239 224l-1 1h1v-1" class="B C F"/><path d="M240 225h-1 1" class="D"/><path d="M240 225h-1 1z" class="B C F"/><path d="M241 227h1-1" class="D"/><path d="M241 227h1-1z" class="B C F"/><path d="M240 226v1h1v-1h-1" class="D"/><path d="M240 226v1h1v-1h-1" class="B C F"/><path d="M241 227" class="D"/><g class="B C"><path d="M241 227z" class="F"/><use xlink:href="#R" class="Q"/><path d="M134 217v-1" class="Y"/><path d="M134 217v-1" class="Z"/><path d="M134 217v-1m-1 1v-1" class="a"/><path d="M133 217v-1" class="K"/><path d="M133 217v-1m0 1v-1" class="b"/><path d="M132 217v-1m0 1v-1" class="c"/><path d="M132 217v-1m0 1v-1m0 1v-1" class="d"/><path d="M131 217v-1" class="S"/><path d="M131 217v-1" class="e"/><path d="M131 217v-1" class="f"/><path d="M130 217v-1m1 1v-1m-1 1v-1" class="g"/><path d="M130 217v-1" class="h"/><path d="M130 217v-1" class="T"/><path d="M129 217v-1" class="i"/><path d="M129 217v-1" class="U"/><path d="M136 217v-1m-1 1v-1m0 1v-1" stroke-width="0"/><path d="M278 217v-1" class="Y"/><path d="M277 217v-1" class="Z"/><path d="M277 217v-1m0 1v-1" class="a"/><path d="M277 217v-1" class="K"/><path d="M276 217v-1m0 1v-1" class="b"/><path d="M276 217v-1m0 1v-1" class="c"/><path d="M275 217v-1m0 1v-1m0 1v-1" class="d"/><path d="M275 217v-1" class="S"/><path d="M274 217v-1" class="e"/><path d="M274 217v-1" class="f"/><path d="M274 217v-1m0 1v-1m0 1v-1" class="g"/><path d="M273 217v-1" class="h"/><path d="M273 217v-1" class="T"/><path d="M273 217v-1" class="i"/><path d="M273 217v-1" class="U"/><path d="M279 217v-1m0 1v-1m-1 1v-1" stroke-width="0"/></g><defs><path id="B" d="M135 204v1h-1v-3h2v1h-1v1"/><path id="C" d="M136 204v1h-3v-1h1v-2h2v1h-1v1h1"/><path id="D" d="M128 215l-1-1 8-1 7 1v1l-1 1-6-1-7 1v-1"/><path id="E" d="M135 215h-1l-1-1h3v1h-1"/><path id="F" d="M130 215h-1v-1h2v1h-1"/><path id="G" d="M139 215h1v-1h-1-1l1 1"/><path id="H" d="M150 320l-4-1-4-1-4 1-3 1-4-1-4-1-3 1-4 1v2l4-1 3-1 4 1 4 1 3-1 4-1 4 1 4 1v-2"/><path id="I" d="M150 322l-4-1-4-1-4 1-3 1-4-1-4-1-3 1-4 1v2h4l3-1 4 1h7l4-1 4 1h4v-2"/><path id="J" d="M150 327l-4-1-4-1-4 1-3 1-4-1-4-1-3 1-4 1v-3h4l3-1 4 1h7l4-1 4 1h4v3"/><path id="K" d="M158 258a50 50 0 00-23-2c-9 1-16 5-16 8l-3-8c-1-3 7-7 17-9a53 53 0 019-1l16 2v10"/><path id="L" d="M127 267c-5 0-7-1-8-3 0-1 1-3 4-4h4v7"/><path id="M" d="M142 262l6 1v1c1 1-2 3-6 5v-8"/><path id="N" d="M271 215a5 5 0 00-1-1l8-1 7 1v1l-1 1-6-1-7 1v-1"/><path id="O" d="M278 215h-1v-1h2v1h-1"/><path id="P" d="M273 215h-1v-1h2v1h-1"/><path id="Q" d="M282 215h2l-1-1h-1v1"/><path id="R" d="M279 205v1h-2v-1h1v-1h-1v-1h2v1h-1v1h1"/><path id="S" d="M263 320l4-1 3-1 4 1 4 1 4-1 3-1 4 1 4 1v2l-4-1-4-1-3 1-4 1-4-1-4-1-3 1-4 1v-2"/><path id="T" d="M263 322l4-1 3-1 4 1 4 1 4-1 3-1 4 1 4 1v2h-4l-4-1-3 1h-8l-4-1-3 1h-4v-2"/><path id="U" d="M263 327l4-1 3-1 4 1 4 1 4-1 3-1 4 1 4 1v-3h-4l-4-1-3 1h-8l-4-1-3 1h-4v3"/><path id="V" d="M254 258a50 50 0 0123-2c10 1 17 5 16 8l4-8c0-3-7-7-18-9a53 53 0 00-9-1l-16 2v10"/><path id="W" d="M286 267c4 0 7-1 7-3 1-1-1-3-3-4h-4v7"/><path id="X" d="M270 262l-6 1v1c0 1 2 3 6 5v-8"/><path id="Y" d="M182 184l2 1 2-3a7 7 0 01-4-8c0-4 5-7 12-7l8 2v-2l-8-2c-8 0-13 4-14 9v1c0 3 1 5 3 7l-1 2"/><path id="Z" d="M182 184l-4-7c0-4 2-7 6-9a8 8 0 00-4 7c0 3 1 5 3 7l-1 2"/><path id="a" d="M230 184l-2 1-2-3c3-2 4-4 4-7a7 7 0 000-1c0-4-5-7-12-7l-8 2a23 23 0 000-2l8-2c8 0 13 4 14 9v1c0 3-1 5-3 7l1 2"/><path id="b" d="M230 184l4-7c0-4-2-7-6-9 2 2 4 4 4 6v1c0 3-1 5-3 7l1 2"/><path id="c" d="M206 302c0 13-10 23-24 23-13 0-24-10-24-23v-32h48v32"/><path id="d" d="M255 270v32c0 13-11 23-25 23s-24-10-24-23v-32h49"/><path id="e" d="M236 225v-1 1h1-1"/><path id="f" d="M235 224h-1v-1l1 1"/><path id="g" d="M238 226"/></defs></svg>